<svg width="26" height="25" viewBox="0 0 26 25" fill="none" xmlns="http://www.w3.org/2000/svg">
<path d="M9.875 18.75V5.20833L22.375 3.125V16.6667M9.875 18.75C9.875 20.4759 8.47589 21.875 6.75 21.875C5.02411 21.875 3.625 20.4759 3.625 18.75C3.625 17.0241 5.02411 15.625 6.75 15.625C8.47589 15.625 9.875 17.0241 9.875 18.75ZM22.375 16.6667C22.375 18.3926 20.9759 19.7917 19.25 19.7917C17.5241 19.7917 16.125 18.3926 16.125 16.6667C16.125 14.9408 17.5241 13.5417 19.25 13.5417C20.9759 13.5417 22.375 14.9408 22.375 16.6667Z" stroke="#61616B" stroke-width="2" stroke-linecap="round" stroke-linejoin="round"/>
</svg>
